PathFileType	4	(X/Y/Z)	/Users/itak/Documents/Research/Walk-IL/dataset/trc/00489_00167.trc
DataRate	CameraRate	NumFrames	NumMarkers	Units	OrigDataRate	OrigDataStartFrame	OrigNumFrames
100.000000	100.000000	4	53	mm	100.000000	72	581
Frame#	Time	RPSI			LPSI			L3			STRN			T10			C7			CLAV			RBAK			LBAK			LSHO			LUPA			LAEL			LAOL			LWTS			LWPS			LFRA			LIFD			LHPS			LHTS			RSHO			RUPA			RAEL			RAOL			RWTS			RWPS			RFRA			RIFD			RHTS			RHPS			RBHD			LFHD			RFHD			LBHD			LHIP			RHIP			RASI			LASI			LKNE			LTHI			LANK			LTIP			LTOE			LMT1			LMT5			LHEE			RKNE			RTHI			RANK			RTIP			RTOE			RMT1			RMT5			RHEE			
		X1	Y1	Z1	X2	Y2	Z2	X3	Y3	Z3	X4	Y4	Z4	X5	Y5	Z5	X6	Y6	Z6	X7	Y7	Z7	X8	Y8	Z8	X9	Y9	Z9	X10	Y10	Z10	X11	Y11	Z11	X12	Y12	Z12	X13	Y13	Z13	X14	Y14	Z14	X15	Y15	Z15	X16	Y16	Z16	X17	Y17	Z17	X18	Y18	Z18	X19	Y19	Z19	X20	Y20	Z20	X21	Y21	Z21	X22	Y22	Z22	X23	Y23	Z23	X24	Y24	Z24	X25	Y25	Z25	X26	Y26	Z26	X27	Y27	Z27	X28	Y28	Z28	X29	Y29	Z29	X30	Y30	Z30	X31	Y31	Z31	X32	Y32	Z32	X33	Y33	Z33	X34	Y34	Z34	X35	Y35	Z35	X36	Y36	Z36	X37	Y37	Z37	X38	Y38	Z38	X39	Y39	Z39	X40	Y40	Z40	X41	Y41	Z41	X42	Y42	Z42	X43	Y43	Z43	X44	Y44	Z44	X45	Y45	Z45	X46	Y46	Z46	X47	Y47	Z47	X48	Y48	Z48	X49	Y49	Z49	X50	Y50	Z50	X51	Y51	Z51	X52	Y52	Z52	X53	Y53	Z53	

73	0.72	-1722.081420898438	973.306396484375	-299.5709838867188	-1655.928344726562	970.8375854492188	-424.7593688964844	-1680.208740234375	1061.58349609375	-343.9757080078125	-1430.659423828125	1251.924194335938	-243.3662109375	-1691.907958984375	1185.891357421875	-357.5483093261719	-1632.12890625	1455.945678710938	-324.4259338378906	-1459.174072265625	1364.949096679688	-263.4414978027344	-1730.055786132812	1337.774047851562	-260.3175048828125	-1624.367553710938	1404.891723632812	-428.4711608886719	-1499.003051757812	1421.535522460938	-460.9532470703125	-1467.841796875	1300.79443359375	-552.2418823242188	-1435.801635742188	1083.515014648438	-568.5655517578125	-1535.083374023438	1068.686645507812	-545.5010375976562	-1386.087646484375	884.4800415039062	-485.0740051269531	-1399.371704101562	866.38427734375	-556.2984008789062	-1412.659545898438	995.7535400390625	-565.0626831054688	-1376.235107421875	723.3524169921875	-480.2563171386719	-1388.7763671875	789.0955810546875	-548.4483032226562	-1364.447265625	800.312744140625	-480.4739685058594	-1632.060791015625	1425.982299804688	-150.7260589599609	-1679.119506835938	1368.034423828125	-85.37725067138672	-1699.676635742188	1081.64013671875	-22.43513298034668	-1732.912353515625	1061.662109375	-78.31907653808594	-1579.747192382812	881.2088623046875	-25.2354564666748	-1659.046508789062	864.25	9.749133110046387	-1697.2294921875	1023.397094726562	-9.977952003479004	-1572.30810546875	725.11376953125	-14.63941764831543	-1563.780639648438	785.04931640625	-7.242458820343018	-1637.585693359375	777.5152587890625	14.22381782531738	-1545.05419921875	1658.589233398438	-204.9877777099609	-1371.924072265625	1633.0888671875	-316.8731994628906	-1408.930419921875	1641.358764648438	-191.9286041259766	-1509.949829101562	1655.714233398438	-379.7186584472656	-1485.663208007812	864.0531616210938	-469.9118347167969	-1688.144897460938	862.3028564453125	-128.5269775390625	-1563.876586914062	898.7343139648438	-130.1109619140625	-1432.548217773438	896.0245361328125	-353.3432312011719	-1509.721557617188	444.3580017089844	-444.4728088378906	-1472.821533203125	596.228759765625	-450.9847717285156	-1602.857788085938	46.93317794799805	-491.2240295410156	-1520.544067382812	298.0072631835938	-466.3067016601562	-1423.968383789062	44.47110366821289	-324.6088256835938	-1506.359130859375	50.44976043701172	-333.1421813964844	-1459.221801757812	48.93317794799805	-436.2529602050781	-1669.91943359375	49.74890518188477	-451.8606262207031	-1669.03271484375	468.5328979492188	-151.4486389160156	-1658.859375	727.2711791992188	-102.6249542236328	-1727.212768554688	40.30471801757812	-175.4723510742188	-1676.872924804688	328.2079162597656	-144.0265808105469	-1509.587890625	48.01971435546875	-135.7129821777344	-1554.925903320312	56.40903854370117	-190.2128295898438	-1615.258422851562	45.08145141601562	-98.29654693603516	-1766.911010742188	34.1391487121582	-244.8621520996094	
74	0.73	-1722.02001953125	973.3047485351562	-299.6148071289062	-1655.864990234375	970.8234252929688	-424.7926330566406	-1680.1201171875	1061.600952148438	-343.9783325195312	-1430.520141601562	1251.947143554688	-243.2846069335938	-1691.780883789062	1185.84716796875	-357.527587890625	-1632.0576171875	1455.970703125	-324.37451171875	-1459.064575195312	1364.97802734375	-263.3782348632812	-1729.93896484375	1337.742553710938	-260.2694091796875	-1624.355102539062	1404.93603515625	-428.4543151855469	-1498.902954101562	1421.558959960938	-460.9018249511719	-1467.680541992188	1300.8037109375	-552.1470336914062	-1435.520385742188	1083.576049804688	-568.4922485351562	-1534.809936523438	1068.751708984375	-545.4666748046875	-1385.46142578125	884.737548828125	-484.8600158691406	-1398.788696289062	866.4848022460938	-556.0579223632812	-1412.214599609375	995.8475341796875	-564.9185791015625	-1375.415283203125	723.5556640625	-479.9495239257812	-1388.079345703125	789.27685546875	-548.152587890625	-1363.714477539062	800.546875	-480.2017822265625	-1631.984130859375	1425.99169921875	-150.6818389892578	-1678.99169921875	1368.0234375	-85.30194091796875	-1699.181274414062	1081.61181640625	-22.26663970947266	-1732.444946289062	1061.56787109375	-78.13602447509766	-1578.75341796875	881.4773559570312	-25.10289764404297	-1657.979125976562	864.32177734375	9.964068412780762	-1696.586303710938	1023.379272460938	-9.795869827270508	-1570.866455078125	725.4090576171875	-14.48636913299561	-1562.492919921875	785.3601684570312	-7.101373672485352	-1636.26953125	777.64892578125	14.43446159362793	-1545.06396484375	1658.6298828125	-204.9872589111328	-1371.958129882812	1633.209106445312	-316.8593444824219	-1408.93408203125	1641.482421875	-191.9056549072266	-1509.971557617188	1655.739501953125	-379.7220153808594	-1485.65771484375	864.0765380859375	-469.9777221679688	-1688.087158203125	862.2869873046875	-128.5663909912109	-1563.910400390625	898.6964721679688	-130.1703186035156	-1432.488159179688	896.05126953125	-353.3842163085938	-1509.65673828125	444.3235778808594	-444.4893188476562	-1472.75	596.2199096679688	-451.0276184082031	-1602.846435546875	46.93815231323242	-491.2211608886719	-1520.596923828125	297.9292907714844	-466.3897705078125	-1423.964233398438	44.4712028503418	-324.6062622070312	-1506.355102539062	50.45253372192383	-333.1398010253906	-1459.219970703125	48.93495559692383	-436.2496032714844	-1669.921508789062	49.75005340576172	-451.8574829101562	-1669.013549804688	468.5386962890625	-151.4757080078125	-1658.81787109375	727.2787475585938	-102.6359710693359	-1727.211181640625	40.30999755859375	-175.4697570800781	-1676.868286132812	328.2158813476562	-144.0449066162109	-1509.590942382812	48.01819229125977	-135.7242431640625	-1554.926147460938	56.40884017944336	-190.2148284912109	-1615.25439453125	45.08896636962891	-98.30096435546875	-1766.914306640625	34.14041519165039	-244.8572845458984	
75	0.74	-1721.947875976562	973.2948608398438	-299.6772766113281	-1655.770874023438	970.7919921875	-424.8444213867188	-1680.009765625	1061.619873046875	-344.0003051757812	-1430.380737304688	1251.964965820312	-243.1972351074219	-1691.651611328125	1185.804931640625	-357.5071716308594	-1631.992553710938	1456.000610351562	-324.3243408203125	-1458.956176757812	1365.001708984375	-263.312744140625	-1729.824096679688	1337.710083007812	-260.2118530273438	-1624.335815429688	1404.972290039062	-428.4142456054688	-1498.798217773438	1421.588134765625	-460.8400268554688	-1467.526611328125	1300.820068359375	-552.0482177734375	-1435.25244140625	1083.64794921875	-568.4124145507812	-1534.552856445312	1068.825927734375	-545.4268798828125	-1384.895751953125	884.984375	-484.6495056152344	-1398.229614257812	866.589599609375	-555.807861328125	-1411.776611328125	995.9592895507812	-564.7717895507812	-1374.550537109375	723.7633056640625	-479.6115417480469	-1387.420166015625	789.4627075195312	-547.85107421875	-1362.95263671875	800.77294921875	-479.9052429199219	-1631.901611328125	1425.99609375	-150.6278228759766	-1678.852172851562	1368.0087890625	-85.21822357177734	-1698.677368164062	1081.586181640625	-22.07514572143555	-1731.989868164062	1061.48046875	-77.91670989990234	-1577.77490234375	881.7224731445312	-25.00502777099609	-1656.929443359375	864.3859252929688	10.17843914031982	-1695.941284179688	1023.362548828125	-9.592862129211426	-1569.493774414062	725.6926879882812	-14.33793544769287	-1561.2421875	785.640380859375	-7.00245475769043	-1634.995727539062	777.772216796875	14.64421844482422	-1545.075927734375	1658.66845703125	-204.9770965576172	-1371.997924804688	1633.343505859375	-316.8454284667969	-1408.930908203125	1641.609985351562	-191.8758087158203	-1509.995361328125	1655.76318359375	-379.7202453613281	-1485.623657226562	864.0934448242188	-470.0421752929688	-1688.020874023438	862.2724609375	-128.6164703369141	-1563.894287109375	898.6905517578125	-130.2271881103516	-1432.399780273438	896.0802612304688	-353.4330749511719	-1509.593872070312	444.2948608398438	-444.5186157226562	-1472.681030273438	596.2100830078125	-451.0740356445312	-1602.826171875	46.94728851318359	-491.2147521972656	-1520.641845703125	297.8594665527344	-466.4674377441406	-1423.959350585938	44.47270202636719	-324.6050415039062	-1506.352294921875	50.45497894287109	-333.139404296875	-1459.218017578125	48.93635559082031	-436.2481079101562	-1669.921020507812	49.74907302856445	-451.8547058105469	-1668.987426757812	468.543212890625	-151.5049133300781	-1658.769775390625	727.2880249023438	-102.6534271240234	-1727.21142578125	40.31549072265625	-175.4690093994141	-1676.8564453125	328.2232666015625	-144.0649108886719	-1509.59326171875	48.01732635498047	-135.7352142333984	-1554.926635742188	56.40860748291016	-190.2176208496094	-1615.25146484375	45.09692001342773	-98.30361175537109	-1766.91650390625	34.14070129394531	-244.8538818359375	
76	0.75	-1721.86669921875	973.2810668945312	-299.7565307617188	-1655.64013671875	970.7439575195312	-424.9142150878906	-1679.87548828125	1061.637939453125	-344.0405578613281	-1430.243041992188	1251.97802734375	-243.1046142578125	-1691.521850585938	1185.76513671875	-357.4838256835938	-1631.934326171875	1456.033325195312	-324.2740478515625	-1458.849609375	1365.018676757812	-263.2431335449219	-1729.71337890625	1337.676147460938	-260.142333984375	-1624.306762695312	1404.999389648438	-428.3479614257812	-1498.693481445312	1421.621704101562	-460.7665710449219	-1467.376708984375	1300.844360351562	-551.9454345703125	-1434.989868164062	1083.727783203125	-568.322509765625	-1534.3017578125	1068.9072265625	-545.3780517578125	-1384.36962890625	885.2195434570312	-484.4319152832031	-1397.692993164062	866.6935424804688	-555.5480346679688	-1411.34912109375	996.0845947265625	-564.6183471679688	-1373.643310546875	723.9700927734375	-479.2471923828125	-1386.793579101562	789.6452026367188	-547.5404052734375	-1362.168579101562	800.9900512695312	-479.5840454101562	-1631.812744140625	1425.99462890625	-150.5615692138672	-1678.702270507812	1367.989624023438	-85.12583923339844	-1698.170043945312	1081.561645507812	-21.8679084777832	-1731.531372070312	1061.3916015625	-77.66824340820312	-1576.818481445312	881.9473266601562	-24.93142890930176	-1655.903442382812	864.4426879882812	10.38898086547852	-1695.3017578125	1023.34375	-9.374190330505371	-1568.192626953125	725.9651489257812	-14.1877613067627	-1560.030395507812	785.8942260742188	-6.942831993103027	-1633.768310546875	777.8840942382812	14.85067462921143	-1545.090698242188	1658.7060546875	-204.9557037353516	-1372.040283203125	1633.488037109375	-316.8309020996094	-1408.922241210938	1641.738403320312	-191.8391418457031	-1510.0234375	1655.78466796875	-379.7117309570312	-1485.559814453125	864.1015625	-470.1060485839844	-1687.940673828125	862.2601318359375	-128.6750946044922	-1563.844360351562	898.7054443359375	-130.2878875732422	-1432.282470703125	896.1101684570312	-353.4881591796875	-1509.531494140625	444.272705078125	-444.565185546875	-1472.619018554688	596.1980590820312	-451.1255187988281	-1602.79345703125	46.96146011352539	-491.2044677734375	-1520.673950195312	297.8040466308594	-466.5339965820312	-1423.954711914062	44.47626113891602	-324.6062927246094	-1506.351196289062	50.45742797851562	-333.14111328125	-1459.215698242188	48.93660354614258	-436.25048828125	-1669.919677734375	49.74871826171875	-451.8547668457031	-1668.954711914062	468.5467224121094	-151.5356292724609	-1658.716186523438	727.298828125	-102.679931640625	-1727.213500976562	40.32172393798828	-175.4698181152344	-1676.837890625	328.2300720214844	-144.08544921875	-1509.593505859375	48.01714324951172	-135.7462005615234	-1554.9267578125	56.40837097167969	-190.2208099365234	-1615.249145507812	45.10523223876953	-98.30516052246094	-1766.917602539062	34.13972854614258	-244.8518676757812	
